<?xml version="1.0" standalone="no"?>
<!DOCTYPE svg PUBLIC "-//W3C//DTD SVG 20010904//EN"
 "http://www.w3.org/TR/2001/REC-SVG-20010904/DTD/svg10.dtd">
<svg version="1.0" xmlns="http://www.w3.org/2000/svg"
 width="96.000000pt" height="96.000000pt" viewBox="0 0 96.000000 96.000000"
 preserveAspectRatio="xMidYMid meet">
<metadata>
Created by potrace 1.11, written by Peter Selinger 2001-2013
</metadata>
<g transform="translate(0.000000,96.000000) scale(0.100000,-0.100000)"
fill="#000000" stroke="none">
<path d="M0 480 l0 -480 480 0 480 0 0 480 0 480 -480 0 -480 0 0 -480z m336
202 c10 -6 63 -127 134 -300 9 -24 21 -43 26 -43 5 1 11 79 14 173 l5 173 99
3 c61 2 111 -2 128 -9 59 -24 86 -92 53 -135 -19 -25 -19 -60 -1 -67 8 -3 20
-24 27 -47 15 -49 2 -81 -47 -111 -29 -18 -48 -19 -194 -18 l-163 2 -16 39
c-18 44 -33 50 -116 46 -57 -3 -59 -4 -79 -43 -17 -33 -27 -41 -54 -43 -28 -3
-32 0 -32 20 0 13 20 70 44 128 24 58 54 130 66 160 12 30 27 61 32 68 11 13
56 16 74 4z"/>
<path d="M602 598 c-30 -30 -5 -68 46 -68 43 0 72 16 72 40 0 11 -9 24 -19 30
-27 14 -84 13 -99 -2z"/>
<path d="M281 531 c-6 -11 -11 -31 -11 -45 0 -22 4 -26 30 -26 36 0 43 13 32
55 -10 36 -36 44 -51 16z"/>
<path d="M607 445 c-33 -32 -12 -75 37 -75 114 0 139 72 30 86 -40 5 -54 3
-67 -11z"/>
</g>
</svg>
